<mxfile host="Electron" agent="Mozilla/5.0 (Windows NT 10.0; Win64; x64) AppleWebKit/537.36 (KHTML, like Gecko) draw.io/28.0.6 Chrome/138.0.7204.100 Electron/37.2.3 Safari/537.36" version="28.0.6">
  <diagram name="Page-1" id="0qjP29wUDQ_x877emLtl">
    <mxGraphModel dx="1019" dy="699" grid="1" gridSize="10" guides="1" tooltips="1" connect="1" arrows="1" fold="1" page="1" pageScale="1" pageWidth="3300" pageHeight="4681" math="0" shadow="0">
      <root>
        <mxCell id="0" />
        <mxCell id="1" parent="0" />
        <mxCell id="ZuIn8YCGDoR9FnGZ9Gt7-3" value="" style="edgeStyle=orthogonalEdgeStyle;rounded=0;orthogonalLoop=1;jettySize=auto;html=1;" edge="1" parent="1" source="ZuIn8YCGDoR9FnGZ9Gt7-1" target="ZuIn8YCGDoR9FnGZ9Gt7-2">
          <mxGeometry relative="1" as="geometry" />
        </mxCell>
        <mxCell id="ZuIn8YCGDoR9FnGZ9Gt7-1" value="Project Selection" style="rounded=1;whiteSpace=wrap;html=1;" vertex="1" parent="1">
          <mxGeometry x="120" y="50" width="120" height="60" as="geometry" />
        </mxCell>
        <mxCell id="ZuIn8YCGDoR9FnGZ9Gt7-7" value="" style="edgeStyle=orthogonalEdgeStyle;rounded=0;orthogonalLoop=1;jettySize=auto;html=1;" edge="1" parent="1" source="ZuIn8YCGDoR9FnGZ9Gt7-6" target="ZuIn8YCGDoR9FnGZ9Gt7-2">
          <mxGeometry relative="1" as="geometry" />
        </mxCell>
        <mxCell id="ZuIn8YCGDoR9FnGZ9Gt7-2" value="Project Editor" style="whiteSpace=wrap;html=1;rounded=1;" vertex="1" parent="1">
          <mxGeometry x="120" y="190" width="120" height="60" as="geometry" />
        </mxCell>
        <mxCell id="ZuIn8YCGDoR9FnGZ9Gt7-9" value="" style="edgeStyle=orthogonalEdgeStyle;rounded=0;orthogonalLoop=1;jettySize=auto;html=1;" edge="1" parent="1" source="ZuIn8YCGDoR9FnGZ9Gt7-8" target="ZuIn8YCGDoR9FnGZ9Gt7-6">
          <mxGeometry relative="1" as="geometry" />
        </mxCell>
        <mxCell id="ZuIn8YCGDoR9FnGZ9Gt7-6" value="EditorWindow&lt;div&gt;&lt;font style=&quot;font-size: 8px;&quot;&gt;(tabBrowser)&lt;/font&gt;&lt;/div&gt;" style="whiteSpace=wrap;html=1;rounded=1;arcSize=0;" vertex="1" parent="1">
          <mxGeometry x="320" y="190" width="120" height="60" as="geometry" />
        </mxCell>
        <mxCell id="ZuIn8YCGDoR9FnGZ9Gt7-11" value="" style="edgeStyle=orthogonalEdgeStyle;rounded=0;orthogonalLoop=1;jettySize=auto;html=1;" edge="1" parent="1" source="ZuIn8YCGDoR9FnGZ9Gt7-10" target="ZuIn8YCGDoR9FnGZ9Gt7-8">
          <mxGeometry relative="1" as="geometry">
            <Array as="points">
              <mxPoint x="170" y="360" />
            </Array>
          </mxGeometry>
        </mxCell>
        <mxCell id="ZuIn8YCGDoR9FnGZ9Gt7-17" style="edgeStyle=orthogonalEdgeStyle;rounded=0;orthogonalLoop=1;jettySize=auto;html=1;exitX=0.5;exitY=0;exitDx=0;exitDy=0;entryX=0.5;entryY=1;entryDx=0;entryDy=0;" edge="1" parent="1" source="ZuIn8YCGDoR9FnGZ9Gt7-16" target="ZuIn8YCGDoR9FnGZ9Gt7-8">
          <mxGeometry relative="1" as="geometry" />
        </mxCell>
        <mxCell id="ZuIn8YCGDoR9FnGZ9Gt7-8" value="Tab" style="rounded=1;whiteSpace=wrap;html=1;arcSize=0;" vertex="1" parent="1">
          <mxGeometry x="320" y="330" width="120" height="60" as="geometry" />
        </mxCell>
        <mxCell id="ZuIn8YCGDoR9FnGZ9Gt7-13" value="" style="edgeStyle=orthogonalEdgeStyle;rounded=0;orthogonalLoop=1;jettySize=auto;html=1;" edge="1" parent="1" source="ZuIn8YCGDoR9FnGZ9Gt7-12" target="ZuIn8YCGDoR9FnGZ9Gt7-10">
          <mxGeometry relative="1" as="geometry" />
        </mxCell>
        <mxCell id="ZuIn8YCGDoR9FnGZ9Gt7-10" value="PanelManager" style="rounded=1;whiteSpace=wrap;html=1;arcSize=0;" vertex="1" parent="1">
          <mxGeometry x="110" y="470" width="120" height="60" as="geometry" />
        </mxCell>
        <mxCell id="ZuIn8YCGDoR9FnGZ9Gt7-12" value="Panel" style="rounded=1;whiteSpace=wrap;html=1;arcSize=0;" vertex="1" parent="1">
          <mxGeometry x="110" y="610" width="120" height="60" as="geometry" />
        </mxCell>
        <mxCell id="ZuIn8YCGDoR9FnGZ9Gt7-14" value="Rule: Only 1 World per Scene" style="text;html=1;align=center;verticalAlign=middle;resizable=0;points=[];autosize=1;strokeColor=none;fillColor=none;" vertex="1" parent="1">
          <mxGeometry x="405" y="50" width="180" height="30" as="geometry" />
        </mxCell>
        <mxCell id="ZuIn8YCGDoR9FnGZ9Gt7-19" value="" style="edgeStyle=orthogonalEdgeStyle;rounded=0;orthogonalLoop=1;jettySize=auto;html=1;" edge="1" parent="1" source="ZuIn8YCGDoR9FnGZ9Gt7-18" target="ZuIn8YCGDoR9FnGZ9Gt7-16">
          <mxGeometry relative="1" as="geometry" />
        </mxCell>
        <mxCell id="ZuIn8YCGDoR9FnGZ9Gt7-22" style="edgeStyle=orthogonalEdgeStyle;rounded=0;orthogonalLoop=1;jettySize=auto;html=1;exitX=0.5;exitY=0;exitDx=0;exitDy=0;" edge="1" parent="1" source="ZuIn8YCGDoR9FnGZ9Gt7-21" target="ZuIn8YCGDoR9FnGZ9Gt7-16">
          <mxGeometry relative="1" as="geometry" />
        </mxCell>
        <mxCell id="ZuIn8YCGDoR9FnGZ9Gt7-24" style="edgeStyle=orthogonalEdgeStyle;rounded=0;orthogonalLoop=1;jettySize=auto;html=1;" edge="1" parent="1" source="ZuIn8YCGDoR9FnGZ9Gt7-23" target="ZuIn8YCGDoR9FnGZ9Gt7-16">
          <mxGeometry relative="1" as="geometry">
            <Array as="points">
              <mxPoint x="800" y="570" />
              <mxPoint x="570" y="570" />
            </Array>
          </mxGeometry>
        </mxCell>
        <mxCell id="ZuIn8YCGDoR9FnGZ9Gt7-31" style="edgeStyle=orthogonalEdgeStyle;rounded=0;orthogonalLoop=1;jettySize=auto;html=1;entryX=1;entryY=0.5;entryDx=0;entryDy=0;dashed=1;dashPattern=8 8;" edge="1" parent="1" source="ZuIn8YCGDoR9FnGZ9Gt7-16" target="ZuIn8YCGDoR9FnGZ9Gt7-12">
          <mxGeometry relative="1" as="geometry" />
        </mxCell>
        <mxCell id="ZuIn8YCGDoR9FnGZ9Gt7-16" value="SceneWorld" style="rounded=0;whiteSpace=wrap;html=1;" vertex="1" parent="1">
          <mxGeometry x="510" y="470" width="120" height="60" as="geometry" />
        </mxCell>
        <mxCell id="ZuIn8YCGDoR9FnGZ9Gt7-18" value="ECSManager" style="rounded=0;whiteSpace=wrap;html=1;" vertex="1" parent="1">
          <mxGeometry x="400" y="610" width="120" height="60" as="geometry" />
        </mxCell>
        <mxCell id="ZuIn8YCGDoR9FnGZ9Gt7-21" value="Asset IO" style="whiteSpace=wrap;html=1;" vertex="1" parent="1">
          <mxGeometry x="570" y="610" width="120" height="60" as="geometry" />
        </mxCell>
        <mxCell id="ZuIn8YCGDoR9FnGZ9Gt7-23" value="Rendering Context" style="whiteSpace=wrap;html=1;" vertex="1" parent="1">
          <mxGeometry x="740" y="610" width="120" height="60" as="geometry" />
        </mxCell>
      </root>
    </mxGraphModel>
  </diagram>
</mxfile>
